<mxfile host="65bd71144e" scale="3" border="0">
    <diagram id="LzTGRrPrDBO6Tm46XuKC" name="Page-1">
        <mxGraphModel dx="1776" dy="1284" grid="0" gridSize="10" guides="1" tooltips="1" connect="1" arrows="1" fold="1" page="0" pageScale="1" pageWidth="1600" pageHeight="1200" math="0" shadow="0">
            <root>
                <mxCell id="0"/>
                <mxCell id="1" parent="0"/>
                <mxCell id="55" value="" style="group" vertex="1" connectable="0" parent="1">
                    <mxGeometry x="-61" y="93.00000000000001" width="269" height="215.2" as="geometry"/>
                </mxCell>
                <mxCell id="54" value="" style="triangle;whiteSpace=wrap;html=1;direction=north;rounded=1;strokeWidth=7;fillColor=#B85450;strokeColor=#B85450;gradientColor=none;fillStyle=auto;perimeterSpacing=10;arcSize=50;aspect=fixed;" vertex="1" parent="55">
                    <mxGeometry width="269" height="215.2" as="geometry"/>
                </mxCell>
                <mxCell id="43" value="" style="triangle;whiteSpace=wrap;html=1;direction=north;rounded=1;strokeWidth=7;fillColor=#1A1A1A;strokeColor=#FFFFFF;gradientColor=none;fillStyle=auto;perimeterSpacing=10;arcSize=50;" vertex="1" parent="55">
                    <mxGeometry x="9.5" y="9.999999999999986" width="250" height="200" as="geometry"/>
                </mxCell>
                <mxCell id="52" value="" style="group" vertex="1" connectable="0" parent="55">
                    <mxGeometry x="54.5" y="150" width="160" height="50" as="geometry"/>
                </mxCell>
                <mxCell id="45" value="" style="ellipse;whiteSpace=wrap;html=1;aspect=fixed;fillColor=#B85450;strokeColor=#b85450;" vertex="1" parent="52">
                    <mxGeometry x="110" width="50" height="50" as="geometry"/>
                </mxCell>
                <mxCell id="51" value="" style="ellipse;whiteSpace=wrap;html=1;aspect=fixed;fillColor=#B85450;strokeColor=#b85450;" vertex="1" parent="52">
                    <mxGeometry width="50" height="50" as="geometry"/>
                </mxCell>
                <mxCell id="56" value="" style="group" vertex="1" connectable="0" parent="1">
                    <mxGeometry x="293" y="93.00000000000001" width="269" height="215.2" as="geometry"/>
                </mxCell>
                <mxCell id="57" value="" style="triangle;whiteSpace=wrap;html=1;direction=north;rounded=1;strokeWidth=7;fillColor=#B85450;strokeColor=#B85450;gradientColor=none;fillStyle=auto;perimeterSpacing=10;arcSize=50;aspect=fixed;" vertex="1" parent="56">
                    <mxGeometry width="269" height="215.2" as="geometry"/>
                </mxCell>
                <mxCell id="58" value="" style="triangle;whiteSpace=wrap;html=1;direction=north;rounded=1;strokeWidth=7;fillColor=#1A1A1A;strokeColor=#FFFFFF;gradientColor=none;fillStyle=auto;perimeterSpacing=10;arcSize=50;" vertex="1" parent="56">
                    <mxGeometry x="9.5" y="9.999999999999986" width="250" height="200" as="geometry"/>
                </mxCell>
                <mxCell id="59" value="" style="group" vertex="1" connectable="0" parent="56">
                    <mxGeometry x="54.5" y="150" width="160" height="50" as="geometry"/>
                </mxCell>
                <mxCell id="60" value="" style="ellipse;whiteSpace=wrap;html=1;aspect=fixed;fillColor=#B85450;strokeColor=#b85450;" vertex="1" parent="59">
                    <mxGeometry x="110" width="50" height="50" as="geometry"/>
                </mxCell>
                <mxCell id="61" value="" style="ellipse;whiteSpace=wrap;html=1;aspect=fixed;fillColor=#FF3333;strokeColor=#b85450;" vertex="1" parent="59">
                    <mxGeometry width="50" height="50" as="geometry"/>
                </mxCell>
                <mxCell id="62" value="" style="group" vertex="1" connectable="0" parent="1">
                    <mxGeometry x="599" y="93.00000000000001" width="269" height="215.2" as="geometry"/>
                </mxCell>
                <mxCell id="63" value="" style="triangle;whiteSpace=wrap;html=1;direction=north;rounded=1;strokeWidth=7;fillColor=#B85450;strokeColor=#B85450;gradientColor=none;fillStyle=auto;perimeterSpacing=10;arcSize=50;aspect=fixed;" vertex="1" parent="62">
                    <mxGeometry width="269" height="215.2" as="geometry"/>
                </mxCell>
                <mxCell id="64" value="" style="triangle;whiteSpace=wrap;html=1;direction=north;rounded=1;strokeWidth=7;fillColor=#1A1A1A;strokeColor=#FFFFFF;gradientColor=none;fillStyle=auto;perimeterSpacing=10;arcSize=50;" vertex="1" parent="62">
                    <mxGeometry x="9.5" y="9.999999999999986" width="250" height="200" as="geometry"/>
                </mxCell>
                <mxCell id="65" value="" style="group" vertex="1" connectable="0" parent="62">
                    <mxGeometry x="54.5" y="150" width="160" height="50" as="geometry"/>
                </mxCell>
                <mxCell id="66" value="" style="ellipse;whiteSpace=wrap;html=1;aspect=fixed;fillColor=#FF3333;strokeColor=#b85450;" vertex="1" parent="65">
                    <mxGeometry x="110" width="50" height="50" as="geometry"/>
                </mxCell>
                <mxCell id="67" value="" style="ellipse;whiteSpace=wrap;html=1;aspect=fixed;fillColor=#B85450;strokeColor=#b85450;" vertex="1" parent="65">
                    <mxGeometry width="50" height="50" as="geometry"/>
                </mxCell>
                <mxCell id="68" value="Active status" style="text;html=1;align=center;verticalAlign=middle;whiteSpace=wrap;rounded=0;fontSize=18;fontStyle=1" vertex="1" parent="1">
                    <mxGeometry x="395" y="339" width="363" height="30" as="geometry"/>
                </mxCell>
                <mxCell id="70" value="Pasive status" style="text;html=1;align=center;verticalAlign=middle;whiteSpace=wrap;rounded=0;fontSize=18;fontStyle=1" vertex="1" parent="1">
                    <mxGeometry x="-86" y="342" width="363" height="30" as="geometry"/>
                </mxCell>
            </root>
        </mxGraphModel>
    </diagram>
</mxfile>